<?xml version="1.0" standalone="no"?>
<!DOCTYPE svg PUBLIC "-//W3C//DTD SVG 20010904//EN"
 "http://www.w3.org/TR/2001/REC-SVG-20010904/DTD/svg10.dtd">
<svg version="1.0" xmlns="http://www.w3.org/2000/svg"
 width="1280.000000pt" height="1280.000000pt" viewBox="0 0 1280.000000 1280.000000"
 preserveAspectRatio="xMidYMid meet">
<metadata>
Created by potrace 1.15, written by Peter Selinger 2001-2017
</metadata>
<g transform="translate(0.000000,1280.000000) scale(0.100000,-0.100000)"
fill="#D32F2F" stroke="none">
<path d="M6120 12154 c-1576 -80 -3052 -780 -4089 -1939 -811 -907 -1303
-2010 -1437 -3225 -22 -198 -30 -765 -15 -986 172 -2436 1881 -4501 4266
-5153 819 -224 1706 -268 2549 -126 2014 340 3708 1706 4450 3588 281 714 409
1429 393 2202 -9 401 -44 713 -122 1080 -287 1342 -1067 2556 -2175 3386 -895
671 -1920 1060 -3055 1159 -126 11 -637 20 -765 14z m815 -599 c315 -33 641
-96 935 -180 162 -47 420 -133 457 -154 8 -4 -20 -82 -93 -256 -58 -138 -286
-680 -506 -1205 -220 -525 -404 -962 -410 -970 -6 -10 -8 0 -4 31 32 277 32
685 1 909 -74 536 -264 1004 -552 1360 -64 79 -252 266 -316 314 -46 35 -49
35 -163 -64 -395 -340 -680 -895 -778 -1515 -43 -273 -52 -655 -22 -915 8 -74
14 -136 12 -137 -1 -2 -114 264 -251 589 -136 326 -367 876 -512 1222 -204
485 -261 631 -251 637 24 15 241 90 403 139 356 107 740 177 1145 209 170 14
727 5 905 -14z m-2487 -705 c228 -544 864 -2055 869 -2062 16 -27 -15 6 -91
96 -108 129 -350 366 -476 467 -170 136 -391 279 -568 368 -205 103 -498 198
-725 237 -184 30 -571 30 -613 -1 -15 -11 -18 -36 -22 -207 -3 -116 0 -236 7
-294 57 -487 265 -959 617 -1399 113 -141 368 -396 509 -510 61 -49 117 -95
125 -102 20 -19 108 -54 -975 390 -517 212 -1068 437 -1224 501 -156 63 -288
119 -292 123 -11 11 186 403 286 568 229 381 477 698 790 1010 374 375 767
667 1235 920 163 88 391 195 410 192 9 -1 60 -111 138 -297z m4307 180 c308
-152 545 -297 806 -491 576 -429 1060 -972 1414 -1589 79 -137 245 -466 245
-486 0 -6 -98 -50 -217 -99 -120 -49 -683 -279 -1252 -512 -568 -233 -1036
-423 -1038 -423 -3 0 32 29 77 65 551 433 957 1013 1115 1590 61 225 79 354
79 590 1 248 -4 282 -42 292 -15 5 -130 8 -257 8 -196 0 -249 -4 -360 -24
-516 -92 -1000 -346 -1455 -763 -106 -97 -271 -273 -343 -368 -17 -22 -32 -38
-34 -36 -1 1 174 423 390 937 217 514 440 1046 497 1182 102 243 104 248 129
242 14 -3 125 -55 246 -115z m-6420 -3052 c396 -162 919 -375 1162 -474 244
-98 443 -182 443 -185 0 -3 -30 -1 -67 4 -121 17 -621 13 -767 -6 -620 -83
-1112 -293 -1490 -636 -77 -70 -184 -183 -233 -249 l-25 -32 38 -48 c21 -26
74 -85 119 -131 386 -402 941 -656 1610 -736 169 -21 570 -24 724 -6 57 7 104
11 106 9 2 -2 -283 -120 -633 -262 -351 -143 -889 -362 -1197 -488 -308 -126
-570 -234 -582 -239 -29 -11 -30 -7 -128 286 -145 434 -226 854 -255 1315 -45
731 78 1501 349 2182 l10 28 48 -19 c27 -10 372 -152 768 -313z m8975 275 c43
-112 131 -380 164 -503 105 -388 159 -740 175 -1142 28 -692 -75 -1339 -316
-1996 -28 -75 -50 -121 -57 -118 -70 29 -1037 425 -1646 673 -426 173 -777
318 -780 321 -3 2 13 2 35 -1 22 -4 124 -11 226 -17 215 -13 461 -2 683 31
639 93 1190 368 1548 773 114 128 112 121 44 205 -128 156 -340 337 -531 454
-493 300 -1145 444 -1798 398 -93 -7 -176 -15 -185 -18 -12 -4 -14 -3 -7 4 6
6 431 182 945 391 514 209 1054 430 1200 491 146 60 268 110 271 110 3 1 16
-25 29 -56z m-7245 -2906 c-97 -72 -279 -234 -401 -358 -480 -490 -768 -1056
-835 -1639 -13 -120 -8 -485 8 -501 18 -18 205 -31 353 -25 548 22 1063 231
1575 640 122 98 374 347 480 476 44 52 76 88 73 80 -3 -8 -186 -442 -406 -965
-220 -522 -441 -1051 -493 -1174 -51 -123 -99 -225 -106 -228 -17 -7 -387 175
-554 272 -786 456 -1417 1076 -1879 1846 -93 154 -259 471 -288 549 l-10 26
632 258 c347 141 908 371 1246 510 338 140 620 254 625 255 6 0 -3 -10 -20
-22z m5938 -502 c669 -274 1217 -503 1217 -510 0 -20 -212 -433 -280 -545
-243 -403 -461 -682 -799 -1021 -340 -340 -647 -580 -1041 -814 -206 -122
-601 -318 -614 -304 -2 2 -114 267 -249 589 -135 322 -358 852 -496 1179 -138
327 -249 596 -248 598 2 1 40 -42 85 -96 108 -129 361 -375 492 -480 407 -324
836 -520 1307 -597 116 -20 456 -26 545 -11 47 8 47 8 55 55 15 89 9 429 -10
547 -75 459 -282 908 -605 1310 -121 151 -363 394 -507 510 -146 117 -149 120
-105 102 19 -7 583 -238 1253 -512z m-4520 -955 c-21 -186 -21 -570 1 -755 68
-565 262 -1058 564 -1427 69 -85 296 -306 335 -327 25 -13 29 -11 104 51 474
396 781 1048 844 1796 13 162 7 557 -11 695 -6 48 -10 91 -8 96 2 5 93 -205
202 -467 144 -345 722 -1721 822 -1958 3 -7 -46 -29 -123 -57 -453 -161 -877
-254 -1358 -299 -181 -17 -738 -17 -910 0 -357 36 -696 99 -1007 188 -165 47
-452 144 -465 158 -2 2 101 256 230 563 223 528 774 1843 784 1871 12 30 11
-2 -4 -128z"/>
</g>
</svg>
